<?xml version="1.0" encoding="UTF-8"?>
<svg xmlns="http://www.w3.org/2000/svg" width="800.000" height="600.000" viewBox="0.0 0.0 800.000 600.000" version="1.1">
  <desc>Produce by Acme CAD Converter</desc>
<path d="M368.95 157L78.67 157"
fill="none" stroke="black" stroke-width="0.5"/>
<path d="M368.95 144.9L78.67 144.9"
fill="none" stroke="black" stroke-width="0.5"/>
<path d="M78.67 144.9L78.67 157Z"
fill="none" stroke="black" stroke-width="0.5"/>
<path d="M368.95 144.9L368.95 157Z"
fill="none" stroke="black" stroke-width="0.5"/>
<path d="M692 144.9L498.48 144.9"
fill="none" stroke="black" stroke-width="0.5"/>
<path d="M692 157L498.48 157"
fill="none" stroke="black" stroke-width="0.5"/>
<path d="M692 144.9L692 157Z"
fill="none" stroke="black" stroke-width="0.5"/>
<path d="M498.48 144.9L498.48 157Z"
fill="none" stroke="black" stroke-width="0.5"/>
<path d="M368.95 477.24L78.67 477.24"
fill="none" stroke="black" stroke-width="0.5"/>
<path d="M78.67 283.71L368.95 283.71"
fill="none" stroke="black" stroke-width="0.5"/>
<path d="M78.67 477.24L78.67 283.71Z"
fill="none" stroke="black" stroke-width="0.5"/>
<path d="M368.95 283.71L368.95 477.24Z"
fill="none" stroke="black" stroke-width="0.5"/>
<path d="M561.03 474.3L561.03 484.17Z"
fill="none" stroke="black" stroke-width="0.5"/>
<path d="M766.29 355.79L561.03 474.3"
fill="none" stroke="black" stroke-width="0.5"/>
<path d="M561.03 474.3L424.19 395.29"
fill="none" stroke="black" stroke-width="0.5"/>
<path d="M424.19 395.29L629.45 276.78"
fill="none" stroke="black" stroke-width="0.5"/>
<path d="M766.29 355.79L766.29 365.66Z"
fill="none" stroke="black" stroke-width="0.5"/>
<path d="M424.19 395.29L424.19 405.17Z"
fill="none" stroke="black" stroke-width="0.5"/>
<path d="M629.45 276.78L766.29 355.79"
fill="none" stroke="black" stroke-width="0.5"/>
<path d="M766.29 365.66L561.03 484.17"
fill="none" stroke="black" stroke-width="0.5"/>
<path d="M561.03 484.17L424.19 405.17"
fill="none" stroke="black" stroke-width="0.5"/>
<path d="M78.67 282.52L78.67 258.48Z"
fill="none" stroke="black" stroke-width="0.5"/>
<path d="M368.95 282.52L368.95 258.48Z"
fill="none" stroke="black" stroke-width="0.5"/>
<path d="M83.43 260.86L364.19 260.86"
fill="none" stroke="black" stroke-width="0.5"/>
<path d="M83.43 260.06L78.67 260.86 78.67 260.86 83.43 261.65 83.43 260.06Z"
fill="black" stroke="black" stroke-width="0.2"/>
<path d="M364.19 261.65L368.95 260.86 368.95 260.86 364.19 260.06 364.19 261.65Z"
fill="black" stroke="black" stroke-width="0.2"/>
<path d="M225.48 254.06L225.18 253.45"
fill="none" stroke="black" stroke-width="0.5"/>
<path d="M225.18 253.45L224.27 253.14"
fill="none" stroke="black" stroke-width="0.5"/>
<path d="M224.27 253.14L223.66 253.14"
fill="none" stroke="black" stroke-width="0.5"/>
<path d="M223.66 253.14L222.75 253.45"
fill="none" stroke="black" stroke-width="0.5"/>
<path d="M222.75 253.45L222.14 254.36"
fill="none" stroke="black" stroke-width="0.5"/>
<path d="M222.14 254.36L221.83 255.88"
fill="none" stroke="black" stroke-width="0.5"/>
<path d="M221.83 255.88L221.83 257.4Z"
fill="none" stroke="black" stroke-width="0.5"/>
<path d="M221.83 257.4L222.14 258.61"
fill="none" stroke="black" stroke-width="0.5"/>
<path d="M222.14 258.61L222.75 259.22"
fill="none" stroke="black" stroke-width="0.5"/>
<path d="M222.75 259.22L223.66 259.52"
fill="none" stroke="black" stroke-width="0.5"/>
<path d="M223.66 259.52L223.96 259.52"
fill="none" stroke="black" stroke-width="0.5"/>
<path d="M223.96 259.52L224.87 259.22"
fill="none" stroke="black" stroke-width="0.5"/>
<path d="M224.87 259.22L225.48 258.61"
fill="none" stroke="black" stroke-width="0.5"/>
<path d="M225.48 258.61L225.78 257.7"
fill="none" stroke="black" stroke-width="0.5"/>
<path d="M225.78 257.7L225.78 257.4Z"
fill="none" stroke="black" stroke-width="0.5"/>
<path d="M225.78 257.4L225.48 256.49"
fill="none" stroke="black" stroke-width="0.5"/>
<path d="M225.48 256.49L224.87 255.88"
fill="none" stroke="black" stroke-width="0.5"/>
<path d="M224.87 255.88L223.96 255.57"
fill="none" stroke="black" stroke-width="0.5"/>
<path d="M223.96 255.57L223.66 255.57"
fill="none" stroke="black" stroke-width="0.5"/>
<path d="M223.66 255.57L222.75 255.88"
fill="none" stroke="black" stroke-width="0.5"/>
<path d="M222.75 255.88L222.14 256.49"
fill="none" stroke="black" stroke-width="0.5"/>
<path d="M222.14 256.49L221.83 257.4"
fill="none" stroke="black" stroke-width="0.5"/>
<path d="M78.67 283.71L78.67 283.71Z"
fill="none" stroke="black" stroke-width="0.5"/>
<path d="M368.95 283.71L368.95 283.71Z"
fill="none" stroke="black" stroke-width="0.5"/>
<path d="M368.95 260.86L368.95 260.86Z"
fill="none" stroke="black" stroke-width="0.5"/>
<path d="M77.48 477.24L53.43 477.24"
fill="none" stroke="black" stroke-width="0.5"/>
<path d="M77.48 283.71L53.43 283.71"
fill="none" stroke="black" stroke-width="0.5"/>
<path d="M55.81 472.48L55.81 288.48Z"
fill="none" stroke="black" stroke-width="0.5"/>
<path d="M55.02 472.48L55.81 477.24 55.81 477.24 56.6 472.48 55.02 472.48Z"
fill="black" stroke="black" stroke-width="0.2"/>
<path d="M56.6 288.48L55.81 283.71 55.81 283.71 55.02 288.48 56.6 288.48Z"
fill="black" stroke="black" stroke-width="0.2"/>
<path d="M48.1 379.72L52.35 382.75"
fill="none" stroke="black" stroke-width="0.5"/>
<path d="M52.35 382.75L52.35 378.2Z"
fill="none" stroke="black" stroke-width="0.5"/>
<path d="M48.1 379.72L54.48 379.72"
fill="none" stroke="black" stroke-width="0.5"/>
<path d="M78.67 477.24L78.67 477.24Z"
fill="none" stroke="black" stroke-width="0.5"/>
<path d="M78.67 283.71L78.67 283.71Z"
fill="none" stroke="black" stroke-width="0.5"/>
<path d="M55.81 283.71L55.81 283.71Z"
fill="none" stroke="black" stroke-width="0.5"/>
<path d="M368.95 143.71L368.95 119.67Z"
fill="none" stroke="black" stroke-width="0.5"/>
<path d="M78.67 143.71L78.67 119.67Z"
fill="none" stroke="black" stroke-width="0.5"/>
<path d="M364.19 122.05L83.43 122.05"
fill="none" stroke="black" stroke-width="0.5"/>
<path d="M364.19 122.84L368.95 122.05 368.95 122.05 364.19 121.25 364.19 122.84Z"
fill="black" stroke="black" stroke-width="0.2"/>
<path d="M83.43 121.25L78.67 122.05 78.67 122.05 83.43 122.84 83.43 121.25Z"
fill="black" stroke="black" stroke-width="0.2"/>
<path d="M225.48 115.25L225.18 114.64"
fill="none" stroke="black" stroke-width="0.5"/>
<path d="M225.18 114.64L224.27 114.33"
fill="none" stroke="black" stroke-width="0.5"/>
<path d="M224.27 114.33L223.66 114.33"
fill="none" stroke="black" stroke-width="0.5"/>
<path d="M223.66 114.33L222.75 114.64"
fill="none" stroke="black" stroke-width="0.5"/>
<path d="M222.75 114.64L222.14 115.55"
fill="none" stroke="black" stroke-width="0.5"/>
<path d="M222.14 115.55L221.83 117.07"
fill="none" stroke="black" stroke-width="0.5"/>
<path d="M221.83 117.07L221.83 118.59Z"
fill="none" stroke="black" stroke-width="0.5"/>
<path d="M221.83 118.59L222.14 119.8"
fill="none" stroke="black" stroke-width="0.5"/>
<path d="M222.14 119.8L222.75 120.41"
fill="none" stroke="black" stroke-width="0.5"/>
<path d="M222.75 120.41L223.66 120.71"
fill="none" stroke="black" stroke-width="0.5"/>
<path d="M223.66 120.71L223.96 120.71"
fill="none" stroke="black" stroke-width="0.5"/>
<path d="M223.96 120.71L224.87 120.41"
fill="none" stroke="black" stroke-width="0.5"/>
<path d="M224.87 120.41L225.48 119.8"
fill="none" stroke="black" stroke-width="0.5"/>
<path d="M225.48 119.8L225.78 118.89"
fill="none" stroke="black" stroke-width="0.5"/>
<path d="M225.78 118.89L225.78 118.59Z"
fill="none" stroke="black" stroke-width="0.5"/>
<path d="M225.78 118.59L225.48 117.68"
fill="none" stroke="black" stroke-width="0.5"/>
<path d="M225.48 117.68L224.87 117.07"
fill="none" stroke="black" stroke-width="0.5"/>
<path d="M224.87 117.07L223.96 116.76"
fill="none" stroke="black" stroke-width="0.5"/>
<path d="M223.96 116.76L223.66 116.76"
fill="none" stroke="black" stroke-width="0.5"/>
<path d="M223.66 116.76L222.75 117.07"
fill="none" stroke="black" stroke-width="0.5"/>
<path d="M222.75 117.07L222.14 117.68"
fill="none" stroke="black" stroke-width="0.5"/>
<path d="M222.14 117.68L221.83 118.59"
fill="none" stroke="black" stroke-width="0.5"/>
<path d="M368.95 144.9L368.95 144.9Z"
fill="none" stroke="black" stroke-width="0.5"/>
<path d="M78.67 144.9L78.67 144.9Z"
fill="none" stroke="black" stroke-width="0.5"/>
<path d="M78.67 122.05L78.67 122.05Z"
fill="none" stroke="black" stroke-width="0.5"/>
<path d="M370.14 144.9L394.19 144.9"
fill="none" stroke="black" stroke-width="0.5"/>
<path d="M370.14 157L394.19 157"
fill="none" stroke="black" stroke-width="0.5"/>
<path d="M391.81 144.9L391.81 157Z"
fill="none" stroke="black" stroke-width="0.5"/>
<path d="M391.81 140.14L391.81 135.38Z"
fill="none" stroke="black" stroke-width="0.5"/>
<path d="M391.81 161.76L391.81 166.52Z"
fill="none" stroke="black" stroke-width="0.5"/>
<path d="M391.02 140.14L391.81 144.9 391.81 144.9 392.6 140.14 391.02 140.14Z"
fill="black" stroke="black" stroke-width="0.2"/>
<path d="M392.6 161.76L391.81 157 391.81 157 391.02 161.76 392.6 161.76Z"
fill="black" stroke="black" stroke-width="0.2"/>
<path d="M382.58 159L382.27 158.4"
fill="none" stroke="black" stroke-width="0.5"/>
<path d="M382.27 158.4L381.36 157.48"
fill="none" stroke="black" stroke-width="0.5"/>
<path d="M381.36 157.48L387.74 157.48"
fill="none" stroke="black" stroke-width="0.5"/>
<path d="M380.15 148.67L389.87 154.14"
fill="none" stroke="black" stroke-width="0.5"/>
<path d="M381.36 144.42L385.62 147.46"
fill="none" stroke="black" stroke-width="0.5"/>
<path d="M385.62 147.46L385.62 142.9Z"
fill="none" stroke="black" stroke-width="0.5"/>
<path d="M381.36 144.42L387.74 144.42"
fill="none" stroke="black" stroke-width="0.5"/>
<path d="M368.95 144.9L368.95 144.9Z"
fill="none" stroke="black" stroke-width="0.5"/>
<path d="M368.95 157L368.95 157Z"
fill="none" stroke="black" stroke-width="0.5"/>
<path d="M391.81 157L391.81 157Z"
fill="none" stroke="black" stroke-width="0.5"/>
<path d="M497.29 144.9L473.24 144.9"
fill="none" stroke="black" stroke-width="0.5"/>
<path d="M497.29 157L473.24 157"
fill="none" stroke="black" stroke-width="0.5"/>
<path d="M475.62 144.9L475.62 157Z"
fill="none" stroke="black" stroke-width="0.5"/>
<path d="M475.62 140.14L475.62 135.38Z"
fill="none" stroke="black" stroke-width="0.5"/>
<path d="M475.62 161.76L475.62 166.52Z"
fill="none" stroke="black" stroke-width="0.5"/>
<path d="M474.83 140.14L475.62 144.9 475.62 144.9 476.41 140.14 474.83 140.14Z"
fill="black" stroke="black" stroke-width="0.2"/>
<path d="M476.41 161.76L475.62 157 475.62 157 474.83 161.76 476.41 161.76Z"
fill="black" stroke="black" stroke-width="0.2"/>
<path d="M466.39 159L466.08 158.4"
fill="none" stroke="black" stroke-width="0.5"/>
<path d="M466.08 158.4L465.17 157.48"
fill="none" stroke="black" stroke-width="0.5"/>
<path d="M465.17 157.48L471.55 157.48"
fill="none" stroke="black" stroke-width="0.5"/>
<path d="M463.96 148.67L473.68 154.14"
fill="none" stroke="black" stroke-width="0.5"/>
<path d="M465.17 144.42L469.42 147.46"
fill="none" stroke="black" stroke-width="0.5"/>
<path d="M469.42 147.46L469.42 142.9Z"
fill="none" stroke="black" stroke-width="0.5"/>
<path d="M465.17 144.42L471.55 144.42"
fill="none" stroke="black" stroke-width="0.5"/>
<path d="M498.48 144.9L498.48 144.9Z"
fill="none" stroke="black" stroke-width="0.5"/>
<path d="M498.48 157L498.48 157Z"
fill="none" stroke="black" stroke-width="0.5"/>
<path d="M475.62 157L475.62 157Z"
fill="none" stroke="black" stroke-width="0.5"/>
<path d="M692 143.71L692 119.67Z"
fill="none" stroke="black" stroke-width="0.5"/>
<path d="M498.48 143.71L498.48 119.67Z"
fill="none" stroke="black" stroke-width="0.5"/>
<path d="M687.24 122.05L503.24 122.05"
fill="none" stroke="black" stroke-width="0.5"/>
<path d="M687.24 122.84L692 122.05 692 122.05 687.24 121.25 687.24 122.84Z"
fill="black" stroke="black" stroke-width="0.2"/>
<path d="M503.24 121.25L498.48 122.05 498.48 122.05 503.24 122.84 503.24 121.25Z"
fill="black" stroke="black" stroke-width="0.2"/>
<path d="M596 114.33L592.96 118.59"
fill="none" stroke="black" stroke-width="0.5"/>
<path d="M592.96 118.59L597.52 118.59"
fill="none" stroke="black" stroke-width="0.5"/>
<path d="M596 114.33L596 120.71Z"
fill="none" stroke="black" stroke-width="0.5"/>
<path d="M692 144.9L692 144.9Z"
fill="none" stroke="black" stroke-width="0.5"/>
<path d="M498.48 144.9L498.48 144.9Z"
fill="none" stroke="black" stroke-width="0.5"/>
<path d="M498.48 122.05L498.48 122.05Z"
fill="none" stroke="black" stroke-width="0.5"/>
<path d="M0 582.86L0 17.14 800 17.14 800 582.86 0 582.86Z"
fill="none" stroke="black" stroke-width="0.5"/>
</svg>
