<svg width="20" height="21" viewBox="0 0 20 21" fill="none" xmlns="http://www.w3.org/2000/svg">
<mask id="mask0_707_4257" style="mask-type:alpha" maskUnits="userSpaceOnUse" x="0" y="0" width="20" height="21">
<rect y="0.5" width="20" height="20" fill="#D9D9D9"/>
</mask>
<g mask="url(#mask0_707_4257)">
<path d="M9.79167 17.4173V14.8132C9.79167 14.0909 9.69097 13.5007 9.48958 13.0423C9.28819 12.584 8.97222 12.1743 8.54167 11.8132L8.83333 11.5215C9.02778 11.702 9.23611 11.9347 9.45833 12.2194C9.68056 12.5041 9.86111 12.8132 10 13.1465C10.1389 12.7854 10.3542 12.4347 10.6458 12.0944C10.9375 11.7541 11.2431 11.4451 11.5625 11.1673C12.3125 10.5145 12.8819 9.6951 13.2708 8.70898C13.6597 7.72287 13.8264 6.29232 13.7708 4.41732L12.0417 6.14648L11.75 5.83398L14 3.58398L16.25 5.83398L15.9375 6.14648L14.1875 4.37565C14.2292 6.16732 14.059 7.60135 13.6771 8.67773C13.2951 9.75412 12.6875 10.6743 11.8542 11.4382C11.3819 11.8687 10.9896 12.3062 10.6771 12.7507C10.3646 13.1951 10.2083 13.8826 10.2083 14.8132V17.4173H9.79167ZM6.04167 7.43815C5.97222 7.11871 5.91319 6.67079 5.86458 6.0944C5.81597 5.51801 5.79861 4.9451 5.8125 4.37565L4.0625 6.14648L3.75 5.83398L6 3.58398L8.25 5.83398L7.95833 6.14648L6.22917 4.39648C6.21528 4.96593 6.22222 5.51801 6.25 6.05273C6.27778 6.58746 6.33333 7.02148 6.41667 7.35482L6.04167 7.43815ZM7.5625 10.7923C7.32639 10.5145 7.09375 10.1986 6.86458 9.8444C6.63542 9.49023 6.47222 9.14648 6.375 8.81315L6.79167 8.68815C6.88889 8.97982 7.03125 9.29232 7.21875 9.62565C7.40625 9.95898 7.61806 10.2576 7.85417 10.5215L7.5625 10.7923Z" fill="#1E1E1E"/>
</g>
</svg>
